# Blender v3.1.2 OBJ File: ''
# www.blender.org
mtllib map.mtl
o 평면
v 0.000000 5.000000 -15.000001
v 0.000000 -5.000000 -15.000001
v 30.000000 5.000000 -14.999999
v 30.000000 -5.000000 -14.999999
vt 1.000000 0.000000
vt 0.000000 1.000000
vt 0.000000 0.000000
vt 1.000000 1.000000
vn -0.0000 0.0000 1.0000
usemtl None
s off
f 2/1/1 3/2/1 1/3/1
f 2/1/1 4/4/1 3/2/1
o 평면.001_평면.002
v 0.000000 5.000000 -15.000000
v -0.000000 -5.000000 -15.000000
v 0.000000 5.000000 -45.000000
v -0.000000 -5.000000 -45.000000
vt 1.000000 0.000000
vt 0.000000 1.000000
vt 0.000000 0.000000
vt 1.000000 1.000000
vn 1.0000 -0.0000 0.0000
usemtl None
s off
f 6/5/2 7/6/2 5/7/2
f 6/5/2 8/8/2 7/6/2
o 평면.002_평면.005
v 29.999998 5.000000 -45.000000
v 30.000000 -5.000000 -45.000000
v 30.000000 5.000000 -15.000000
v 30.000002 -5.000000 -15.000000
vt 1.000000 0.000000
vt 0.000000 1.000000
vt 0.000000 0.000000
vt 1.000000 1.000000
vn -1.0000 0.0000 0.0000
usemtl None
s off
f 10/9/3 11/10/3 9/11/3
f 10/9/3 12/12/3 11/10/3
o 평면.003_평면.006
v 30.000000 5.000001 -45.000000
v 30.000000 -4.999999 -45.000000
v 0.000000 4.999999 -45.000000
v 0.000000 -5.000001 -45.000000
vt 1.000000 0.000000
vt 0.000000 1.000000
vt 0.000000 0.000000
vt 1.000000 1.000000
vn -0.0000 0.0000 -1.0000
usemtl None
s off
f 14/13/4 15/14/4 13/15/4
f 14/13/4 16/16/4 15/14/4
